<svg class="icon icon--gitlab" width="30" height="30" xmlns="http://www.w3.org/2000/svg" preserveAspectRatio="xMinYMin meet"><path fill="none" d="M-1-1h32v32H-1z"/><g><g stroke="null" fill="currentColor"><path d="M14.941 28.765l5.491-16.898H9.451l5.49 16.898h0z"/><path d="M14.95 28.765L9.459 11.866H1.764l13.186 16.9z"/><path d="M1.764 11.866L.095 17.002a1.137 1.137 0 00.413 1.27L14.95 28.766 1.764 11.867h0z"/><path d="M1.764 11.867h7.695L6.152 1.688c-.17-.523-.911-.523-1.081 0L1.764 11.867zM14.95 28.765l5.49-16.899h7.696l-13.186 16.9h0zM28.136 11.866l1.669 5.136a1.137 1.137 0 01-.413 1.27L14.95 28.766l13.186-16.898h0z"/><path d="M28.136 11.867h-7.695l3.307-10.179c.17-.523.91-.523 1.081 0l3.307 10.179z"/></g></g></svg>
